<?xml version="1.0" encoding="UTF-8"?>
<svg version="1.1" xmlns="http://www.w3.org/2000/svg" width="512" height="512">
<path d="M0 0 C-0.93581281 5.52024412 -2.89787348 10.64916171 -4.74609375 15.91796875 C-13.11363088 41.91469842 -8.02285477 71.4018964 4.140625 95.33984375 C25.54409584 135.48729435 64.25019975 161.42163855 106.8515625 174.90234375 C130.62457841 182.00805236 155.11399809 185.23049534 179.875 185.25 C180.64734985 185.25067474 181.41969971 185.25134949 182.2154541 185.25204468 C200.2018803 185.22715528 217.18270245 183.80456876 234 177 C234.88558594 176.64292969 235.77117187 176.28585937 236.68359375 175.91796875 C254.75034567 167.73734348 267.52269837 152.19251127 274.46923828 133.859375 C278.75773785 121.92989028 280.95467892 109.75923434 282.35449219 97.18920898 C282.67863769 94.30013383 283.07655495 91.77033515 284 89 C284.66 89 285.32 89 286 89 C294.04978837 118.46526309 289.76613563 147.55525981 275 174 C274.44441406 175.00933594 273.88882812 176.01867187 273.31640625 177.05859375 C262.1738239 195.89677254 245.48233517 203.75693485 225.7109375 210.90234375 C201.28789197 219.75918391 181.85409463 233.47620777 170 257 C164.33245063 269.69329844 161.79133805 283.1847162 166.875 296.5 C167.93583597 299.00591173 168.98671313 300.9824537 170.6328125 303.15625 C172 305 172 305 172 307 C155.49140006 307.0939006 138.9828882 307.16420119 122.47408485 307.20724869 C114.80685057 307.22777747 107.13978327 307.25570994 99.47265625 307.30175781 C92.78138426 307.34192527 86.09023335 307.36750295 79.39884412 307.37635398 C75.86354838 307.38151881 72.32859866 307.39344892 68.79341507 307.42292023 C30.63210198 307.72824551 1.02653138 296.9469098 -26.83203125 270.23046875 C-48.58619753 248.58225884 -62.49221259 218.64066016 -69 189 C-69.16661133 188.25733887 -69.33322266 187.51467773 -69.50488281 186.74951172 C-74.7149915 162.20375124 -74.60866362 132.4537734 -69 108 C-68.74259033 106.79802979 -68.74259033 106.79802979 -68.47998047 105.57177734 C-59.72247133 65.03992762 -39.06496117 27.00363886 -5.64453125 1.66015625 C-3 0 -3 0 0 0 Z " fill="#000000" transform="translate(128,149)"/>
<path d="M0 0 C4.30159395 1.4987454 6.09435755 4.67019013 8.375 8.375 C8.7678418 9.00349854 9.16068359 9.63199707 9.56542969 10.27954102 C15.96538295 20.66701634 20.60747518 31.28255611 24 43 C24.48339844 44.63582031 24.48339844 44.63582031 24.9765625 46.3046875 C31.80126142 73.92239433 26.64276338 103.82591791 12.6875 128.3203125 C-2.4068444 152.28957235 -23.46767458 169.75169392 -51 177 C-58.40000128 178.62224676 -65.50783482 179.31813983 -73.07421875 179.3359375 C-74.08289505 179.3425943 -75.09157135 179.3492511 -76.1308136 179.35610962 C-78.24417314 179.36615497 -80.35756388 179.37092919 -82.47094727 179.37060547 C-85.69014438 179.37500361 -88.90799535 179.4114784 -92.12695312 179.44921875 C-94.1927037 179.45508381 -96.25846071 179.45905528 -98.32421875 179.4609375 C-99.75262337 179.48249405 -99.75262337 179.48249405 -101.20988464 179.50448608 C-108.43781804 179.4553348 -113.75903606 177.84007816 -119.2421875 173.03515625 C-120.05042969 172.05869141 -120.05042969 172.05869141 -120.875 171.0625 C-121.42929687 170.41410156 -121.98359375 169.76570312 -122.5546875 169.09765625 C-127.42573339 162.02805722 -126.78163367 153.2462352 -126 145 C-125.14104249 141.03708241 -123.78939233 137.62895453 -122 134 C-121.57589844 133.08863281 -121.15179688 132.17726563 -120.71484375 131.23828125 C-117.16428047 124.14704484 -112.57815573 118.59687437 -107 113 C-106.33484375 112.31164062 -105.6696875 111.62328125 -104.984375 110.9140625 C-93.98963139 100.29700092 -80.33734931 95.20814884 -66.16357422 90.30493164 C-41.7956517 81.78339455 -24.54940645 67.16077711 -13.00244141 43.99902344 C-7.04326325 31.4324651 -3.24685905 17.73196152 -1.4296875 3.9453125 C-1 1 -1 1 0 0 Z " fill="#000000" transform="translate(429,277)"/>
<path d="M0 0 C1.51158691 0.01135986 1.51158691 0.01135986 3.05371094 0.02294922 C10.49818699 0.18782041 16.81837161 1.12206589 23.5625 4.4375 C24.49964844 4.87320313 25.43679687 5.30890625 26.40234375 5.7578125 C41.59981712 13.38781971 50.60824603 25.73589137 56.3125 41.51171875 C57.35305411 44.8429371 58.30535132 48.00181266 57.5625 51.4375 C53.91944708 54.16423626 50.16478506 56.19443724 46.05664062 58.12524414 C37.13668805 62.31766553 29.33725733 67.40484579 21.5625 73.4375 C20.79292969 74.03304687 20.02335937 74.62859375 19.23046875 75.2421875 C13.53468109 79.93812289 9.04404508 85.60257693 4.5625 91.4375 C3.94246094 92.241875 3.32242188 93.04625 2.68359375 93.875 C-1.58167617 99.67653045 -4.75799345 105.76740806 -7.859375 112.23828125 C-8.38015625 113.29402344 -8.9009375 114.34976563 -9.4375 115.4375 C-9.87449219 116.38882813 -10.31148437 117.34015625 -10.76171875 118.3203125 C-12.4375 120.4375 -12.4375 120.4375 -15.22265625 121.06640625 C-27.02825393 120.82719867 -34.46783004 118.22090792 -43.05078125 109.98828125 C-55.8325933 96.32785037 -62.0068873 80.29595512 -61.85913086 61.54907227 C-61.16786229 42.62017679 -52.78958255 26.17466019 -39.1875 13.1875 C-28.03009817 3.69795721 -14.4252304 -0.15294337 0 0 Z " fill="#000000" transform="translate(198.4375,65.5625)"/>
<path d="M0 0 C10.72727188 8.04130891 18.34412962 19.80493521 21.52734375 32.89453125 C21.75421875 33.82265625 21.98109375 34.75078125 22.21484375 35.70703125 C23.63771327 50.22030037 21.84497542 64.99637456 12.9765625 76.9921875 C7.54063531 83.56116154 7.54063531 83.56116154 3.12109375 84.29296875 C-0.47142267 83.74110629 -1.56269278 82.20185361 -3.97265625 79.51953125 C-24.02335968 58.55205524 -51.53998252 47.08815069 -79.8203125 42.25390625 C-81.47265625 41.89453125 -81.47265625 41.89453125 -82.47265625 40.89453125 C-83.48358433 28.56120866 -78.4776979 18.74336274 -71.47265625 8.89453125 C-70.75078125 7.84265625 -70.02890625 6.79078125 -69.28515625 5.70703125 C-50.60282433 -12.97530067 -21.48620401 -14.64267849 0 0 Z " fill="#000000" transform="translate(374.47265625,65.10546875)"/>
<path d="M0 0 C7.00789008 7.00789008 9.78060939 14.36265668 10.125 24.25 C9.85525071 40.1314896 4.09381543 55.02919261 -6.89453125 66.49609375 C-16.13579113 75.33889135 -25.73589076 81.17747279 -38.79296875 80.9609375 C-47.69447173 80.19673852 -56.15336082 76.49959696 -62.0390625 69.67578125 C-63.62883346 67.43208972 -64.97176503 65.18356273 -66.25 62.75 C-66.5903125 62.10804688 -66.930625 61.46609375 -67.28125 60.8046875 C-71.61185297 50.5796527 -70.48823951 36.50821206 -66.5078125 26.41796875 C-59.45583385 11.45988981 -49.03902149 0.43404773 -33.25 -5.25 C-21.29752568 -8.22755986 -10.08578992 -6.98246994 0 0 Z M-26.25 25.75 C-26.91666667 29.25 -26.91666667 29.25 -26.25 32.75 C-24.17308202 35.13460953 -22.84443084 35.6459746 -19.75 36.1875 C-16.38349902 35.59836233 -15.24891231 34.48925021 -13.25 31.75 C-12.58333333 29.25 -12.58333333 29.25 -13.25 26.75 C-15.24891231 24.01074979 -16.38349902 22.90163767 -19.75 22.3125 C-22.84443084 22.8540254 -24.17308202 23.36539047 -26.25 25.75 Z " fill="#000000" transform="translate(311.25,190.25)"/>
<path d="M0 0 C0.83273437 -0.020625 1.66546875 -0.04125 2.5234375 -0.0625 C7.26955976 -0.09273008 10.59949295 0.03864918 14.375 3.25 C17.03109728 7.03768902 16.47329968 10.37710247 15.91015625 14.78515625 C14.83663811 19.72960842 12.39518631 22.48856636 8.41796875 25.45703125 C5.01239236 28.25285521 3.72879349 31.51903964 2.375 35.625 C-0.41635213 43.22001037 -3.21524343 48.58668351 -10.4375 52.5625 C-22.57817398 57.87975007 -36.16967783 57.84710525 -48.6171875 53.51953125 C-53.28560316 51.54909607 -57.46915172 49.13808951 -61.625 46.25 C-62.25664062 45.82589844 -62.88828125 45.40179688 -63.5390625 44.96484375 C-66.2278032 42.98333106 -67.5504787 41.44458338 -68.75 38.3125 C-68.57863765 34.11412241 -67.5123624 32.28173052 -64.625 29.25 C-61.5 28.375 -61.5 28.375 -57.625 29.25 C-55.03037111 31.10766707 -52.6410198 33.14478268 -50.203125 35.203125 C-43.6045036 40.44203048 -37.16589088 41.60118208 -28.9375 41.75 C-28.22456787 41.76869141 -27.51163574 41.78738281 -26.77709961 41.80664062 C-21.36367112 41.74122915 -18.0240453 40.43902513 -13.625 37.25 C-12.5684891 33.61852515 -12.5684891 33.61852515 -12.625 30.25 C-13.26566406 29.981875 -13.90632813 29.71375 -14.56640625 29.4375 C-21.55782023 26.27000395 -27.11417762 22.27164477 -30.625 15.25 C-31 11.875 -31 11.875 -30.625 8.25 C-23.52083615 0.00000327 -10.02791813 0.06267449 0 0 Z " fill="#000000" transform="translate(370.625,258.75)"/>
<path d="M0 0 C11.76760612 7.0886774 16.97680891 20.29084787 20.4765625 33.00390625 C22.92662317 44.69097724 23.34089108 57.85119301 19.02734375 69.10546875 C17.16317419 71.70141834 15.78685118 72.37294748 12.6640625 73.00390625 C-1.36210176 67.03147502 -13.75578248 49.69006206 -19.953125 36.48828125 C-23.47691374 27.60912997 -24.31586925 19.16860202 -21.3359375 10.00390625 C-19.49994887 5.98601809 -17.38787412 2.93896102 -14.0859375 0.00390625 C-9.17869507 -1.78054554 -4.87527065 -2.07891976 0 0 Z M-7.2109375 25.19140625 C-8.58771347 27.0131488 -8.58771347 27.0131488 -8.1484375 29.56640625 C-7.48966717 32.14831897 -7.48966717 32.14831897 -5.3359375 34.00390625 C-2.46581454 34.37187073 -0.92819132 34.37900034 1.5390625 32.81640625 C2.91583847 30.9946637 2.91583847 30.9946637 2.4765625 28.44140625 C1.81779217 25.85949353 1.81779217 25.85949353 -0.3359375 24.00390625 C-3.20606046 23.63594177 -4.74368368 23.62881216 -7.2109375 25.19140625 Z " fill="#000000" transform="translate(378.3359375,181.99609375)"/>
</svg>
